<svg width="18" height="18" viewBox="0 0 18 18" fill="none" xmlns="http://www.w3.org/2000/svg">
<path d="M8.99973 0C4.02963 0 0 4.13099 0 9.22891C0 13.3055 2.57836 16.7641 6.15569 17.9846C6.60589 18.0696 6.76983 17.7843 6.76983 17.5399C6.76983 17.3208 6.76193 16.7404 6.75718 15.9705C4.25368 16.5283 3.72547 14.7333 3.72547 14.7333C3.31639 13.6673 2.72649 13.3836 2.72649 13.3836C1.90939 12.8108 2.78817 12.8226 2.78817 12.8226C3.6912 12.8877 4.16617 13.7734 4.16617 13.7734C4.96957 15.1834 6.27272 14.7764 6.78565 14.54C6.86736 13.9435 7.09984 13.537 7.35709 13.3061C5.35862 13.0729 3.25735 12.2815 3.25735 8.74545C3.25735 7.7376 3.6079 6.91442 4.18357 6.2689C4.09079 6.03524 3.78187 5.09738 4.27108 3.8268C4.27108 3.8268 5.02703 3.57862 6.74611 4.77275C7.46464 4.56816 8.23377 4.46587 8.99973 4.46156C9.76412 4.46587 10.5343 4.56763 11.2534 4.77275C12.9714 3.57862 13.7258 3.8268 13.7258 3.8268C14.2166 5.09738 13.9082 6.03524 13.8154 6.2689C14.3926 6.91442 14.7405 7.73814 14.7405 8.74545C14.7405 12.2901 12.6361 13.0708 10.6313 13.2991C10.9545 13.5839 11.2423 14.147 11.2423 15.0079C11.2423 16.2413 11.2312 17.2362 11.2312 17.5393C11.2312 17.7859 11.3931 18.0734 11.8501 17.983C15.4238 16.7603 18 13.3039 18 9.22838C18.0005 4.131 13.9704 0 8.99973 0Z" fill="white"/>
</svg>
