<svg width="17" height="18" viewBox="0 0 17 18" fill="none" xmlns="http://www.w3.org/2000/svg">
<path d="M0.429056 5.77228H3.74259V18H0.429056V5.77228ZM12.7952 5.65462C10.897 5.65462 9.70761 6.85209 9.48765 7.69152V5.77228H5.76569C5.81349 6.79136 5.76569 18 5.76569 18H9.48765V11.3832C9.48765 11.0157 9.47244 10.6482 9.56857 10.3838C9.82438 9.6487 10.374 8.88519 11.3625 8.88519C12.6551 8.88519 13.2427 10.0156 13.2427 11.6723V18H17V11.2011C17 7.41319 15.1502 5.65462 12.7952 5.65462ZM2.02419 0C0.800552 0 0 0.915342 0 2.12293C0 3.30775 0.777739 4.24271 1.97693 4.24271H2.00083C3.24619 4.24271 4.02176 3.30459 4.02176 2.11978C3.9984 0.912818 3.24674 0 2.02419 0Z" fill="white"/>
</svg>
