<svg width="28" height="28" viewBox="0 0 28 28" fill="none" xmlns="http://www.w3.org/2000/svg">
<g clip-path="url(#clip0_142_137)">
<path d="M12.9883 0.0601444C10.5766 0.382801 8.54222 1.83202 7.47034 3.98124C6.66643 5.58358 6.393 7.88593 6.78128 9.70702C7.38831 12.5289 9.67972 16.5867 12.8297 20.4258C13.4094 21.1367 13.5352 21.257 13.7649 21.3336C14.2352 21.4867 14.4703 21.3062 15.4711 20.0539C19.0094 15.6078 21.1641 11.4351 21.3719 8.61874C21.4977 6.97264 21.175 5.30468 20.4696 3.92108C19.4742 1.97421 17.7133 0.639832 15.5039 0.158583C14.9297 0.0328007 13.5735 -0.0218868 12.9883 0.0601444ZM14.5469 5.00936C15.925 5.32108 16.7672 6.75936 16.3516 8.09921C16.1438 8.7828 15.7117 9.28592 15.0446 9.61405C14.6453 9.81092 14.6235 9.81639 14 9.81639C13.3766 9.81639 13.3547 9.81092 12.9555 9.61405C11.4078 8.84842 11.0524 6.90702 12.2446 5.68749C12.5836 5.33749 12.9664 5.11874 13.4422 5.00936C13.8578 4.90546 14.0985 4.90546 14.5469 5.00936Z" fill="white"/>
<path d="M13.7594 6.6172C13.2836 6.76485 13.0539 7.3172 13.2782 7.76563C13.6555 8.52579 14.8203 8.23048 14.8203 7.37735C14.8203 6.88516 14.2407 6.46954 13.7594 6.6172Z" fill="white"/>
<path d="M5.31566 14.9898C5.21722 15.0555 5.09144 15.1977 5.03675 15.307C4.83441 15.7008 1.57504 23.357 1.59691 23.3789C1.60785 23.3898 3.45082 22.4656 5.69847 21.3172L9.77816 19.2391L9.05082 18.1617C8.37816 17.1609 7.55238 15.832 7.19144 15.1594L7.03832 14.875H6.26722C5.57816 14.875 5.47972 14.8914 5.31566 14.9898Z" fill="white"/>
<path d="M20.8085 15.1594C19.857 16.9313 17.8609 19.8352 16.3296 21.6617C15.6898 22.4274 15.4656 22.6297 15.0171 22.8375C14.0601 23.275 12.9773 23.0617 12.2281 22.2961C11.982 22.0445 10.9976 20.8578 10.7953 20.5734C10.7843 20.557 9.42261 21.257 9.35151 21.3117C9.34057 21.3227 10.582 22.5859 12.1132 24.1227C13.9999 26.0039 14.9296 26.9008 14.9898 26.8899C15.0664 26.868 25.539 21.4539 25.5773 21.4156C25.5937 21.3992 23.0617 15.493 22.9414 15.2578C22.8976 15.1758 22.7773 15.05 22.6789 14.9899C22.5093 14.8859 22.4054 14.875 21.7273 14.875H20.9617L20.8085 15.1594Z" fill="white"/>
<path d="M4.12891 23.9586L0.519531 25.807L0.2625 26.3977C0.120312 26.7203 0 27.0703 0 27.1687C0 27.4477 0.191406 27.7648 0.4375 27.8906C0.650781 28 0.74375 28 6.78125 28H12.9117L13.125 27.8742C13.2453 27.8086 13.3438 27.743 13.3438 27.7266C13.3438 27.7102 12.0805 26.4414 10.5437 24.9047L7.73828 22.1102L4.12891 23.9586Z" fill="white"/>
<path d="M21.3719 25.457L16.5156 27.9727L21.9297 27.9891C27.2672 28 27.3492 28 27.5625 27.8906C27.8086 27.7648 28 27.4531 28 27.1742C28 27.032 26.5234 23.4828 26.2828 23.0508C26.2281 22.9414 25.982 23.0617 21.3719 25.457Z" fill="white"/>
</g>
<defs>
<clipPath id="clip0_142_137">
<rect width="28" height="28" fill="white"/>
</clipPath>
</defs>
</svg>
