<svg width="365" height="361" viewBox="0 0 365 361" fill="none" xmlns="http://www.w3.org/2000/svg">
<path d="M128.013 59.8148H92.7223V170.435H128.013V59.8148Z" fill="#F5F5F5"/>
<path d="M128.013 59.8148H110.368V170.13H128.013V59.8148Z" fill="#EBEBEB"/>
<path d="M109.215 48.9545H96.7527V59.8148H109.215V48.9545Z" fill="#F5F5F5"/>
<path d="M109.215 48.9545H106.244V59.8148H109.215V48.9545Z" fill="#EBEBEB"/>
<path d="M89.7819 59.8148V59.1809H129.046V59.8148" fill="#E0E0E0"/>
<path d="M102.676 64.5511H99.6887V70.7805H102.676V64.5511Z" fill="#FAFAFA"/>
<path d="M110.368 73.2259C110.368 73.2916 106.417 73.3451 101.546 73.3451C96.6723 73.3451 92.7223 73.2916 92.7223 73.2259C92.7223 73.1602 96.6716 73.1068 101.546 73.1068C106.418 73.1068 110.368 73.1602 110.368 73.2259Z" fill="#E0E0E0"/>
<path d="M120.475 64.5511H117.488V70.7805H120.475V64.5511Z" fill="#E0E0E0"/>
<path d="M128.167 73.2259C128.167 73.2916 124.217 73.3451 119.345 73.3451C114.472 73.3451 110.522 73.2916 110.522 73.2259C110.522 73.1602 114.471 73.1068 119.345 73.1068C124.217 73.1068 128.167 73.1602 128.167 73.2259Z" fill="#E0E0E0"/>
<path d="M120.475 76.9197H117.488V83.1491H120.475V76.9197Z" fill="#E0E0E0"/>
<path d="M128.167 85.5945C128.167 85.6602 124.217 85.7137 119.345 85.7137C114.472 85.7137 110.522 85.6602 110.522 85.5945C110.522 85.5288 114.471 85.4754 119.345 85.4754C124.217 85.4754 128.167 85.5288 128.167 85.5945Z" fill="#E0E0E0"/>
<path d="M120.475 89.6616H117.488V95.891H120.475V89.6616Z" fill="#E0E0E0"/>
<path d="M128.167 98.3364C128.167 98.4021 124.217 98.4555 119.345 98.4555C114.472 98.4555 110.522 98.4021 110.522 98.3364C110.522 98.2707 114.471 98.2173 119.345 98.2173C124.217 98.2173 128.167 98.2707 128.167 98.3364Z" fill="#E0E0E0"/>
<path d="M120.475 102.403H117.488V108.633H120.475V102.403Z" fill="#E0E0E0"/>
<path d="M128.167 111.078C128.167 111.144 124.217 111.197 119.345 111.197C114.472 111.197 110.522 111.144 110.522 111.078C110.522 111.013 114.471 110.959 119.345 110.959C124.217 110.959 128.167 111.013 128.167 111.078Z" fill="#E0E0E0"/>
<path d="M120.475 114.781H117.488V121.01H120.475V114.781Z" fill="#E0E0E0"/>
<path d="M128.167 123.455C128.167 123.521 124.217 123.575 119.345 123.575C114.472 123.575 110.522 123.521 110.522 123.455C110.522 123.39 114.471 123.336 119.345 123.336C124.217 123.336 128.167 123.39 128.167 123.455Z" fill="#E0E0E0"/>
<path d="M120.475 127.208H117.488V133.438H120.475V127.208Z" fill="#E0E0E0"/>
<path d="M120.475 139.798H117.488V146.028H120.475V139.798Z" fill="#E0E0E0"/>
<path d="M128.167 135.883C128.167 135.949 124.217 136.002 119.345 136.002C114.472 136.002 110.522 135.949 110.522 135.883C110.522 135.818 114.471 135.764 119.345 135.764C124.217 135.764 128.167 135.818 128.167 135.883Z" fill="#E0E0E0"/>
<path d="M102.676 77.1081H99.6887V83.3375H102.676V77.1081Z" fill="#FAFAFA"/>
<path d="M110.368 85.783C110.368 85.8487 106.417 85.9021 101.546 85.9021C96.6723 85.9021 92.7223 85.8487 92.7223 85.783C92.7223 85.7173 96.6716 85.6638 101.546 85.6638C106.418 85.6646 110.368 85.718 110.368 85.783Z" fill="#E0E0E0"/>
<path d="M102.676 89.6659H99.6887V95.896H102.676V89.6659Z" fill="#FAFAFA"/>
<path d="M110.368 98.3407C110.368 98.4064 106.417 98.4598 101.546 98.4598C96.6723 98.4598 92.7223 98.4064 92.7223 98.3407C92.7223 98.275 96.6716 98.2216 101.546 98.2216C106.418 98.2216 110.368 98.275 110.368 98.3407Z" fill="#E0E0E0"/>
<path d="M102.676 102.224H99.6887V108.453H102.676V102.224Z" fill="#FAFAFA"/>
<path d="M110.368 110.898C110.368 110.963 106.417 111.017 101.546 111.017C96.6723 111.017 92.7223 110.963 92.7223 110.898C92.7223 110.832 96.6716 110.779 101.546 110.779C106.418 110.779 110.368 110.833 110.368 110.898Z" fill="#E0E0E0"/>
<path d="M102.676 114.781H99.6887V121.01H102.676V114.781Z" fill="#FAFAFA"/>
<path d="M110.368 123.455C110.368 123.521 106.417 123.575 101.546 123.575C96.6723 123.575 92.7223 123.521 92.7223 123.455C92.7223 123.39 96.6716 123.336 101.546 123.336C106.418 123.336 110.368 123.39 110.368 123.455Z" fill="#E0E0E0"/>
<path d="M102.676 127.338H99.6887V133.569H102.676V127.338Z" fill="#FAFAFA"/>
<path d="M110.368 136.013C110.368 136.079 106.417 136.132 101.546 136.132C96.6723 136.132 92.7223 136.079 92.7223 136.013C92.7223 135.948 96.6716 135.894 101.546 135.894C106.418 135.894 110.368 135.948 110.368 136.013Z" fill="#E0E0E0"/>
<path d="M102.676 139.895H99.6887V146.125H102.676V139.895Z" fill="#FAFAFA"/>
<path d="M257.259 83.2697H221.967V193.889H257.259V83.2697Z" fill="#F5F5F5"/>
<path d="M257.259 83.2697H239.613V193.585H257.259V83.2697Z" fill="#EBEBEB"/>
<path d="M238.459 72.4101H225.997V83.2704H238.459V72.4101Z" fill="#F5F5F5"/>
<path d="M238.46 72.4101H235.489V83.2704H238.46V72.4101Z" fill="#EBEBEB"/>
<path d="M219.026 83.2697V82.6365H258.291V83.2697" fill="#E0E0E0"/>
<path d="M231.921 88.006H228.934V94.2354H231.921V88.006Z" fill="#FAFAFA"/>
<path d="M239.613 96.6808C239.613 96.7465 235.662 96.8 230.791 96.8C225.917 96.8 221.967 96.7465 221.967 96.6808C221.967 96.6151 225.917 96.5617 230.791 96.5617C235.662 96.5617 239.613 96.6151 239.613 96.6808Z" fill="#E0E0E0"/>
<path d="M249.72 88.006H246.733V94.2354H249.72V88.006Z" fill="#E0E0E0"/>
<path d="M257.412 96.6808C257.412 96.7465 253.462 96.8 248.59 96.8C243.716 96.8 239.766 96.7465 239.766 96.6808C239.766 96.6151 243.716 96.5617 248.59 96.5617C253.462 96.5617 257.412 96.6151 257.412 96.6808Z" fill="#E0E0E0"/>
<path d="M249.72 100.375H246.733V106.605H249.72V100.375Z" fill="#E0E0E0"/>
<path d="M257.412 109.049C257.412 109.115 253.462 109.169 248.59 109.169C243.716 109.169 239.766 109.115 239.766 109.049C239.766 108.984 243.716 108.93 248.59 108.93C253.462 108.931 257.412 108.984 257.412 109.049Z" fill="#E0E0E0"/>
<path d="M249.72 113.116H246.733V119.346H249.72V113.116Z" fill="#E0E0E0"/>
<path d="M257.412 121.791C257.412 121.857 253.462 121.91 248.59 121.91C243.716 121.91 239.766 121.857 239.766 121.791C239.766 121.726 243.716 121.672 248.59 121.672C253.462 121.672 257.412 121.726 257.412 121.791Z" fill="#E0E0E0"/>
<path d="M249.72 125.858H246.733V132.088H249.72V125.858Z" fill="#E0E0E0"/>
<path d="M257.412 134.533C257.412 134.599 253.462 134.652 248.59 134.652C243.716 134.652 239.766 134.599 239.766 134.533C239.766 134.467 243.716 134.414 248.59 134.414C253.462 134.414 257.412 134.467 257.412 134.533Z" fill="#E0E0E0"/>
<path d="M249.72 138.236H246.733V144.465H249.72V138.236Z" fill="#E0E0E0"/>
<path d="M257.412 146.91C257.412 146.976 253.462 147.03 248.59 147.03C243.716 147.03 239.766 146.976 239.766 146.91C239.766 146.845 243.716 146.791 248.59 146.791C253.462 146.792 257.412 146.845 257.412 146.91Z" fill="#E0E0E0"/>
<path d="M249.72 150.663H246.733V156.893H249.72V150.663Z" fill="#E0E0E0"/>
<path d="M249.72 163.254H246.733V169.483H249.72V163.254Z" fill="#E0E0E0"/>
<path d="M257.412 159.338C257.412 159.404 253.462 159.457 248.59 159.457C243.716 159.457 239.766 159.404 239.766 159.338C239.766 159.272 243.716 159.219 248.59 159.219C253.462 159.219 257.412 159.272 257.412 159.338Z" fill="#E0E0E0"/>
<path d="M231.921 100.564H228.934V106.793H231.921V100.564Z" fill="#FAFAFA"/>
<path d="M239.613 109.239C239.613 109.304 235.662 109.358 230.791 109.358C225.917 109.358 221.967 109.304 221.967 109.239C221.967 109.173 225.917 109.119 230.791 109.119C235.662 109.119 239.613 109.173 239.613 109.239Z" fill="#E0E0E0"/>
<path d="M231.921 113.121H228.934V119.351H231.921V113.121Z" fill="#FAFAFA"/>
<path d="M239.613 121.796C239.613 121.861 235.662 121.915 230.791 121.915C225.917 121.915 221.967 121.861 221.967 121.796C221.967 121.73 225.917 121.676 230.791 121.676C235.662 121.677 239.613 121.73 239.613 121.796Z" fill="#E0E0E0"/>
<path d="M231.921 125.679H228.934V131.909H231.921V125.679Z" fill="#FAFAFA"/>
<path d="M239.613 134.353C239.613 134.419 235.662 134.472 230.791 134.472C225.917 134.472 221.967 134.419 221.967 134.353C221.967 134.288 225.917 134.234 230.791 134.234C235.662 134.234 239.613 134.288 239.613 134.353Z" fill="#E0E0E0"/>
<path d="M231.921 138.236H228.934V144.465H231.921V138.236Z" fill="#FAFAFA"/>
<path d="M239.613 146.91C239.613 146.976 235.662 147.03 230.791 147.03C225.917 147.03 221.967 146.976 221.967 146.91C221.967 146.845 225.917 146.791 230.791 146.791C235.662 146.792 239.613 146.845 239.613 146.91Z" fill="#E0E0E0"/>
<path d="M231.921 150.793H228.934V157.023H231.921V150.793Z" fill="#FAFAFA"/>
<path d="M239.613 159.468C239.613 159.534 235.662 159.587 230.791 159.587C225.917 159.587 221.967 159.534 221.967 159.468C221.967 159.402 225.917 159.349 230.791 159.349C235.662 159.349 239.613 159.402 239.613 159.468Z" fill="#E0E0E0"/>
<path d="M231.921 163.351H228.934V169.58H231.921V163.351Z" fill="#FAFAFA"/>
<path d="M301.319 126.189H244.177V200.731H301.319V126.189Z" fill="#EBEBEB"/>
<path d="M301.319 126.189H274.526V200.731H301.319V126.189Z" fill="#E0E0E0"/>
<path d="M261.296 136.281H256.158V148.627H261.296V136.281Z" fill="#F5F5F5"/>
<path d="M261.296 184.6H256.158V196.946H261.296V184.6Z" fill="#F5F5F5"/>
<path d="M274.526 153.473C274.526 153.611 267.732 153.724 259.352 153.724C250.97 153.724 244.177 153.611 244.177 153.473C244.177 153.334 250.97 153.221 259.352 153.221C267.732 153.221 274.526 153.334 274.526 153.473Z" fill="#F5F5F5"/>
<path d="M261.296 160.624H256.158V172.97H261.296V160.624Z" fill="#F5F5F5"/>
<path d="M274.526 177.815C274.526 177.954 267.732 178.066 259.352 178.066C250.97 178.066 244.177 177.954 244.177 177.815C244.177 177.676 250.97 177.564 259.352 177.564C267.732 177.564 274.526 177.677 274.526 177.815Z" fill="#F5F5F5"/>
<path d="M285.354 136.281H280.216V148.627H285.354V136.281Z" fill="#F5F5F5"/>
<path d="M296.5 136.281H291.363V148.627H296.5V136.281Z" fill="#F5F5F5"/>
<path d="M285.354 159.708H280.216V172.053H285.354V159.708Z" fill="#F5F5F5"/>
<path d="M296.5 159.708H291.363V172.053H296.5V159.708Z" fill="#F5F5F5"/>
<path d="M285.354 183.135H280.216V195.48H285.354V183.135Z" fill="#F5F5F5"/>
<path d="M296.5 183.135H291.363V195.48H296.5V183.135Z" fill="#F5F5F5"/>
<path d="M305.615 123.594H239.882V126.282H305.615V123.594Z" fill="#E0E0E0"/>
<path d="M301.718 126.536C301.718 126.674 288.946 126.787 273.195 126.787C257.439 126.787 244.67 126.674 244.67 126.536C244.67 126.397 257.439 126.284 273.195 126.284C288.946 126.284 301.718 126.397 301.718 126.536Z" fill="#EBEBEB"/>
<path d="M114.922 202.221H62.9894L62.7638 121.046H114.695L114.922 202.221Z" fill="#EBEBEB"/>
<path d="M114.695 121.046H88.7292V202.221H114.695V121.046Z" fill="#E0E0E0"/>
<path d="M87.0319 105.065H68.6936V121.046H87.0319V105.065Z" fill="#EBEBEB"/>
<path d="M87.032 105.065H82.6615V121.046H87.032V105.065Z" fill="#E0E0E0"/>
<path d="M116.215 120.114H58.4357V121.046H116.215V120.114Z" fill="#E0E0E0"/>
<path d="M77.4106 128.016H73.0145V137.183H77.4106V128.016Z" fill="white"/>
<path d="M88.7292 140.781C88.7292 140.878 82.9162 140.956 75.7468 140.956C68.5753 140.956 62.7631 140.878 62.7631 140.781C62.7631 140.685 68.5746 140.607 75.7468 140.607C82.9162 140.606 88.7292 140.685 88.7292 140.781Z" fill="#E0E0E0"/>
<path d="M103.602 128.016H99.2062V137.183H103.602V128.016Z" fill="#F5F5F5"/>
<path d="M114.922 140.781C114.922 140.878 109.109 140.956 101.939 140.956C94.7678 140.956 88.9556 140.878 88.9556 140.781C88.9556 140.685 94.7671 140.607 101.939 140.607C109.108 140.606 114.922 140.685 114.922 140.781Z" fill="#EBEBEB"/>
<path d="M103.602 146.217H99.2062V155.384H103.602V146.217Z" fill="#F5F5F5"/>
<path d="M114.922 158.981C114.922 159.078 109.109 159.156 101.939 159.156C94.7678 159.156 88.9556 159.078 88.9556 158.981C88.9556 158.885 94.7671 158.807 101.939 158.807C109.108 158.807 114.922 158.885 114.922 158.981Z" fill="#EBEBEB"/>
<path d="M103.602 164.967H99.2062V174.134H103.602V164.967Z" fill="#F5F5F5"/>
<path d="M114.922 177.732C114.922 177.829 109.109 177.907 101.939 177.907C94.7678 177.907 88.9556 177.828 88.9556 177.732C88.9556 177.635 94.7671 177.557 101.939 177.557C109.108 177.556 114.922 177.635 114.922 177.732Z" fill="#EBEBEB"/>
<path d="M103.602 183.716H99.2062V192.884H103.602V183.716Z" fill="#F5F5F5"/>
<path d="M114.922 196.481C114.922 196.578 109.109 196.657 101.939 196.657C94.7678 196.657 88.9556 196.578 88.9556 196.481C88.9556 196.385 94.7671 196.307 101.939 196.307C109.108 196.307 114.922 196.385 114.922 196.481Z" fill="#EBEBEB"/>
<path d="M77.4106 146.495H73.0145V155.662H77.4106V146.495Z" fill="white"/>
<path d="M88.7292 159.259C88.7292 159.356 82.9162 159.435 75.7468 159.435C68.5753 159.435 62.7631 159.356 62.7631 159.259C62.7631 159.163 68.5746 159.085 75.7468 159.085C82.9162 159.085 88.7292 159.163 88.7292 159.259Z" fill="#E0E0E0"/>
<path d="M77.4106 164.973H73.0145V174.14H77.4106V164.973Z" fill="white"/>
<path d="M88.7292 177.738C88.7292 177.835 82.9162 177.913 75.7468 177.913C68.5753 177.913 62.7631 177.834 62.7631 177.738C62.7631 177.642 68.5746 177.564 75.7468 177.564C82.9162 177.563 88.7292 177.642 88.7292 177.738Z" fill="#E0E0E0"/>
<path d="M77.4106 183.452H73.0145V192.619H77.4106V183.452Z" fill="white"/>
<path d="M88.7292 196.216C88.7292 196.313 82.9162 196.391 75.7468 196.391C68.5753 196.391 62.7631 196.313 62.7631 196.216C62.7631 196.12 68.5746 196.042 75.7468 196.042C82.9162 196.042 88.7292 196.12 88.7292 196.216Z" fill="#E0E0E0"/>
<path d="M320.587 104.637C320.861 102.664 318.046 101.041 315.93 100.873C314.921 100.793 313.873 100.945 312.917 100.616C310.846 99.9017 310.019 97.2555 307.999 96.413C306.488 95.7827 304.749 96.3437 303.284 97.0729C301.82 97.8021 300.372 98.719 298.736 98.823C297.314 98.9133 295.768 98.3913 294.523 99.0786C293.595 99.5912 293.109 100.648 292.254 101.272C291.417 101.882 290.326 102.011 289.288 102.068C288.25 102.123 287.175 102.134 286.23 102.562C285.285 102.99 284.503 103.979 284.699 104.988L320.587 104.637Z" fill="#F5F5F5"/>
<path d="M232.731 48.4065C233.161 45.3185 228.754 42.7778 225.442 42.5135C223.863 42.3879 222.223 42.6261 220.727 42.1106C217.486 40.993 216.191 36.8516 213.029 35.5325C210.664 34.5462 207.942 35.4242 205.65 36.565C203.358 37.7057 201.092 39.1418 198.531 39.3042C196.304 39.445 193.885 38.6284 191.936 39.7042C190.483 40.5064 189.723 42.1612 188.385 43.138C187.075 44.0932 185.367 44.2954 183.742 44.3828C182.117 44.4701 180.435 44.4867 178.955 45.1568C177.475 45.8268 176.251 47.374 176.558 48.9545L232.731 48.4065Z" fill="#EBEBEB"/>
<path d="M82.6381 91.1142C82.9805 88.6522 79.4677 86.627 76.8273 86.4162C75.5681 86.3158 74.2607 86.5064 73.0678 86.0949C70.4836 85.2039 69.4514 81.9022 66.93 80.8503C65.0451 80.064 62.8748 80.7636 61.0476 81.6733C59.2205 82.5831 57.4144 83.7274 55.3726 83.8567C53.5965 83.9693 51.6679 83.3181 50.1144 84.1758C48.9567 84.8155 48.35 86.1346 47.2828 86.9129C46.2389 87.6746 44.8767 87.8356 43.5817 87.9056C42.2867 87.9757 40.9456 87.9887 39.766 88.5222C38.5863 89.0565 37.6103 90.2897 37.8556 91.5503L82.6381 91.1142Z" fill="#F5F5F5"/>
<path d="M56.8173 145.418C48.5435 145.608 41.7968 152.277 41.5997 160.46C41.5157 163.965 42.6173 167.209 44.5306 169.837L44.5263 169.838L44.6781 170.043C44.6854 170.052 44.6927 170.062 44.6993 170.071L55.7398 184.924C56.7114 186.231 58.7007 186.19 59.6161 184.844L69.5952 170.17C71.4837 167.322 72.7787 164.345 72.7787 160.835C72.7802 152.196 65.5977 145.217 56.8173 145.418ZM57.1881 172.05C50.7137 172.05 45.4658 166.859 45.4658 160.456C45.4658 154.052 50.7137 148.862 57.1881 148.862C63.6625 148.862 68.9105 154.052 68.9105 160.456C68.9105 166.859 63.6617 172.05 57.1881 172.05Z" fill="#46883D"/>
<g opacity="0.3">
<path d="M56.8173 145.418C48.5435 145.608 41.7968 152.277 41.5997 160.46C41.5157 163.965 42.6173 167.209 44.5306 169.837L44.5263 169.838L44.6781 170.043C44.6854 170.052 44.6927 170.062 44.6993 170.071L55.7398 184.924C56.7114 186.231 58.7007 186.19 59.6161 184.844L69.5952 170.17C71.4837 167.322 72.7787 164.345 72.7787 160.835C72.7802 152.196 65.5977 145.217 56.8173 145.418ZM57.1881 172.05C50.7137 172.05 45.4658 166.859 45.4658 160.456C45.4658 154.052 50.7137 148.862 57.1881 148.862C63.6625 148.862 68.9105 154.052 68.9105 160.456C68.9105 166.859 63.6617 172.05 57.1881 172.05Z" fill="black"/>
</g>
<path d="M55.8932 145.418C47.6193 145.608 40.8727 152.277 40.6756 160.46C40.5909 163.965 41.6932 167.209 43.6065 169.837L43.6021 169.838L43.754 170.043C43.7613 170.052 43.7686 170.062 43.7751 170.071L54.8157 184.924C55.7873 186.231 57.7766 186.19 58.692 184.844L68.6711 170.17C70.5596 167.322 71.8546 164.345 71.8546 160.835C71.8561 152.196 64.6743 145.217 55.8932 145.418ZM56.264 169.96C51.3606 169.96 47.3857 166.028 47.3857 161.179C47.3857 156.329 51.3606 152.398 56.264 152.398C61.1674 152.398 65.1423 156.329 65.1423 161.179C65.1415 166.028 61.1667 169.96 56.264 169.96Z" fill="#46883D"/>
<path d="M301.389 130.8C295.084 130.945 289.942 136.028 289.792 142.264C289.728 144.935 290.567 147.408 292.026 149.41L292.023 149.411L292.139 149.567C292.145 149.574 292.15 149.581 292.155 149.589L300.569 160.908C301.31 161.904 302.825 161.873 303.523 160.846L311.128 149.664C312.567 147.493 313.555 145.225 313.555 142.55C313.554 135.966 308.081 130.647 301.389 130.8ZM301.671 151.097C296.737 151.097 292.737 147.141 292.737 142.261C292.737 137.381 296.737 133.425 301.671 133.425C306.605 133.425 310.605 137.381 310.605 142.261C310.605 147.141 306.605 151.097 301.671 151.097Z" fill="#46883D"/>
<g opacity="0.3">
<path d="M301.389 130.8C295.084 130.945 289.942 136.028 289.792 142.264C289.728 144.935 290.567 147.408 292.026 149.41L292.023 149.411L292.139 149.567C292.145 149.574 292.15 149.581 292.155 149.589L300.569 160.908C301.31 161.904 302.825 161.873 303.523 160.846L311.128 149.664C312.567 147.493 313.555 145.225 313.555 142.55C313.554 135.966 308.081 130.647 301.389 130.8ZM301.671 151.097C296.737 151.097 292.737 147.141 292.737 142.261C292.737 137.381 296.737 133.425 301.671 133.425C306.605 133.425 310.605 137.381 310.605 142.261C310.605 147.141 306.605 151.097 301.671 151.097Z" fill="black"/>
</g>
<path d="M300.685 130.8C294.379 130.945 289.238 136.028 289.087 142.264C289.023 144.935 289.863 147.408 291.321 149.41L291.318 149.411L291.434 149.567C291.44 149.574 291.445 149.581 291.45 149.589L299.864 160.908C300.605 161.904 302.121 161.873 302.819 160.846L310.424 149.664C311.863 147.493 312.85 145.225 312.85 142.55C312.85 135.966 307.377 130.647 300.685 130.8ZM300.967 149.504C297.23 149.504 294.202 146.508 294.202 142.812C294.202 139.116 297.231 136.121 300.967 136.121C304.704 136.121 307.733 139.117 307.733 142.812C307.733 146.508 304.703 149.504 300.967 149.504Z" fill="#46883D"/>
<path d="M65.3438 200.852L13.2072 328.907L110.964 313.008L182.653 328.907L256.079 313.008L354.27 331.533L301.699 200.852L243.045 186.242L183.739 197.415L123.129 186.242L65.3438 200.852Z" fill="white"/>
<path d="M65.3438 200.852C65.3438 200.852 65.6628 200.764 66.3015 200.598C66.9439 200.433 67.8973 200.188 69.1551 199.865C71.6831 199.22 75.4338 198.263 80.338 197.013C90.1645 194.517 104.612 190.848 123.106 186.15L123.126 186.145L123.147 186.149C139.852 189.218 160.355 192.986 183.763 197.287H183.715C201.467 193.935 221.485 190.156 243.016 186.092L243.05 186.085L243.083 186.093C261.299 190.625 281.034 195.536 301.741 200.689L301.826 200.71L301.858 200.79C317.924 240.71 335.688 284.851 354.446 331.464L354.573 331.78L354.235 331.716C338.089 328.67 321.026 325.452 303.725 322.188C287.604 319.146 271.692 316.144 256.045 313.191L256.12 313.191C230.89 318.652 206.343 323.964 182.693 329.083L182.653 329.092L182.614 329.083C157.631 323.538 133.667 318.219 110.929 313.172L110.993 313.174C75.0739 319.005 42.1918 324.343 13.2312 329.044L12.9867 329.083L13.0794 328.857C29.2058 289.323 42.2641 257.311 51.292 235.179C55.8092 224.125 59.3183 215.539 61.6989 209.714C62.8902 206.808 63.7998 204.591 64.4123 203.098C65.0233 201.608 65.3438 200.852 65.3438 200.852C65.3438 200.852 65.0408 201.628 64.4371 203.127C63.8312 204.626 62.9311 206.852 61.7514 209.771C59.3848 215.606 55.8961 224.206 51.4051 235.279C42.4108 257.412 29.4015 289.425 13.3356 328.958L13.1838 328.771C42.1414 324.052 75.0206 318.695 110.936 312.843L110.969 312.838L111.001 312.845C133.742 317.884 157.708 323.195 182.692 328.732H182.613C206.263 323.608 230.809 318.291 256.038 312.826L256.076 312.818L256.114 312.825C271.762 315.778 287.674 318.779 303.795 321.82C321.096 325.085 338.159 328.304 354.305 331.351L354.095 331.603C335.347 284.985 317.595 240.84 301.54 200.915L301.657 201.016C280.953 195.853 261.22 190.933 243.007 186.391L243.073 186.393C221.539 190.441 201.518 194.205 183.763 197.543L183.739 197.547L183.715 197.543C160.312 193.215 139.813 189.424 123.112 186.336L123.153 186.334C104.663 190.988 90.2192 194.623 80.3949 197.096C75.4805 198.328 71.7218 199.27 69.1879 199.905C67.9228 200.22 66.9644 200.458 66.3183 200.619C65.6744 200.777 65.3438 200.852 65.3438 200.852Z" fill="#263238"/>
<path d="M68.3857 204.29L22.3307 322.462L110.529 308.281L183.739 325.04L256.079 307.851L346.016 325.04L298.658 204.29L243.913 190.969L183.739 202.141L122.26 190.969L68.3857 204.29Z" fill="white"/>
<path d="M27.448 309.331L97.5521 293.273L94.9635 278.336L100.788 274.709L91.7267 239.825L63.6932 216.329L27.448 309.331Z" fill="#456446"/>
<path d="M22.3307 322.462L25.7493 313.691L143.291 286.682L149.676 304.061L147.606 307.57L125.529 311.714L110.529 308.281L22.3307 322.462Z" fill="#EBEBEB"/>
<path d="M149.676 284.999L154.34 302.195L167.874 308.014L187.137 299.549L227.538 287.91L214.931 269.128L149.676 284.999Z" fill="#EBEBEB"/>
<path d="M102.723 291.368L124.564 286.682L120.206 272.647L104.295 276.449L100.06 279.405L102.723 291.368Z" fill="#E0E0E0"/>
<path d="M98.2645 244.853L106.195 270.59L118.587 267.894L116.357 258.005L143.618 251.961L98.2645 244.853Z" fill="#456446"/>
<path d="M65.7562 211.037L100.06 238.275L145.601 246.814L194.175 234.871L172.002 200.008L122.26 190.969L68.3857 204.29L65.7562 211.037Z" fill="#EBEBEB"/>
<path d="M178.635 201.214L249.851 309.331L256.079 307.851L187.152 201.508L183.739 202.141L178.635 201.214Z" fill="#EBEBEB"/>
<path d="M120.941 260.726L129.966 286.682L210.071 266.44L195.246 241.479L120.941 260.726Z" fill="#E0E0E0"/>
<path d="M165.506 320.866L166.286 319.72L171.547 311.984L184.173 308.014L192.856 301.544L230.506 291.368L242.198 311.149L183.739 325.04" fill="#E0E0E0"/>
<path d="M232.195 193.144L251.064 213.903L298.658 204.29L243.913 190.969L232.195 193.144Z" fill="#E0E0E0"/>
<path d="M308.674 229.83L273.719 239.435L256.079 216.329L299.851 207.334L308.674 229.83Z" fill="#E0E0E0"/>
<path d="M190.89 200.813L227.538 252.878L269.836 240.875L227.538 194.009L190.89 200.813Z" fill="#EBEBEB"/>
<path d="M293.351 314.975L335.642 298.59L346.016 325.04L293.351 314.975Z" fill="#E0E0E0"/>
<path d="M249.123 249.765L272.101 243.841L296.373 272.647L272.748 280.406L249.123 249.765Z" fill="#456446"/>
<path d="M277.279 241.479L302.846 270.472L322.107 264.08L309.443 231.791L277.279 241.479Z" fill="#E0E0E0"/>
<path d="M296.373 308.204L277.279 282.007L323.431 267.456L332.809 291.368L326.795 297.359L296.373 308.204Z" fill="#456446"/>
<path d="M229.785 256.709L264.869 309.331L286.472 313.66L290.548 311.815L246.093 251.847L229.785 256.709Z" fill="#E0E0E0"/>
<path d="M86.0035 295.918L77.2625 255.272L46.4404 260.599L27.448 309.331L86.0035 295.918Z" fill="#E0E0E0"/>
<path d="M114.343 192.926V211.535L120.941 212.36L139.366 233.589L155.204 231.791L162.743 242.599L145.601 246.814L100.06 238.275L65.7562 211.037L68.3857 204.29L114.343 192.926Z" fill="#456446"/>
<path d="M210.673 197.299L236.551 234.65L258.842 228.693L227.538 194.009L210.673 197.299Z" fill="#E0E0E0"/>
<path d="M286.64 235.885L277.279 221.406L302.595 214.33L308.674 229.83L286.64 235.885Z" fill="#EBEBEB"/>
<path d="M249.123 285.713L261.376 281.525L285.144 313.394L264.869 309.331L249.123 285.713Z" fill="#EBEBEB"/>
<path d="M136.079 314.13L147.476 312.758L151.273 307.259L165.506 311.685L161.783 320.014L136.079 314.13Z" fill="#456446"/>
<path d="M68.3857 204.29C68.3857 204.29 69.5858 203.978 71.9371 203.388C74.2943 202.8 77.7903 201.928 82.3615 200.786C91.5238 198.51 104.993 195.162 122.237 190.877L122.257 190.872L122.277 190.876C139.061 193.915 159.863 197.683 183.762 202.011H183.714C201.707 198.663 222.013 194.885 243.884 190.815L243.918 190.809L243.951 190.817C261.062 194.975 279.453 199.445 298.698 204.123L298.785 204.144L298.817 204.226C313.315 241.177 329.324 281.982 346.191 324.97L346.314 325.285L345.978 325.221C331.567 322.467 316.312 319.551 300.855 316.598C285.705 313.702 270.75 310.843 256.042 308.032L256.121 308.03C231.222 313.944 207.029 319.689 183.78 325.212L183.738 325.222L183.696 325.213C158.047 319.336 133.567 313.727 110.491 308.44L110.555 308.442C78.1545 313.64 48.5297 318.393 22.3519 322.593L22.1154 322.631L22.2015 322.411C36.4569 285.909 47.9946 256.367 55.9691 235.947C59.96 225.75 63.0589 217.831 65.162 212.458C66.2147 209.779 67.0177 207.735 67.5586 206.357C68.1017 204.986 68.3857 204.29 68.3857 204.29C68.3857 204.29 68.1192 205.005 67.5871 206.388C67.052 207.771 66.2585 209.825 65.2175 212.516C63.1282 217.899 60.0498 225.832 56.0852 236.049C48.1435 256.468 36.6548 286.009 22.4592 322.51L22.3088 322.328C48.4837 318.11 78.1056 313.337 110.502 308.118L110.535 308.113L110.567 308.12C133.645 313.399 158.128 318.998 183.78 324.865H183.696C206.945 319.338 231.137 313.588 256.035 307.669L256.075 307.66L256.115 307.668C270.824 310.479 285.779 313.336 300.929 316.232C316.386 319.186 331.64 322.102 346.052 324.857L345.84 325.108C328.985 282.116 312.987 241.307 298.498 204.352L298.617 204.455C279.375 199.767 260.986 195.288 243.877 191.12L243.943 191.121C222.069 195.174 201.76 198.936 183.764 202.27L183.74 202.275L183.716 202.27C159.823 197.913 139.024 194.121 122.245 191.061L122.285 191.059C105.046 195.301 91.5792 198.614 82.4199 200.868C77.8377 201.99 74.3337 202.848 71.9714 203.426C69.6084 204.003 68.3857 204.29 68.3857 204.29Z" fill="#263238"/>
<g opacity="0.2">
<path d="M182.653 328.907L183.739 197.415L123.129 186.242L110.964 313.008L182.653 328.907Z" fill="black"/>
</g>
<g opacity="0.2">
<path d="M243.045 186.242L256.079 313.008L354.27 331.533L301.699 200.852L243.045 186.242Z" fill="black"/>
</g>
<path d="M184.207 72.9884C141.86 73.9603 107.332 108.094 106.324 149.977C105.892 167.913 111.532 184.519 121.326 197.967L121.305 197.974L122.082 199.02C122.119 199.069 122.155 199.119 122.192 199.168L178.698 275.184C183.672 281.875 193.851 281.665 198.538 274.773L249.613 199.674C259.278 185.096 265.907 169.858 265.907 151.896C265.907 107.681 229.148 71.9574 184.207 72.9884ZM186.103 209.293C152.968 209.293 126.106 182.725 126.106 149.953C126.106 117.181 152.968 90.6132 186.103 90.6132C219.239 90.6132 246.1 117.181 246.1 149.953C246.1 182.725 219.239 209.293 186.103 209.293Z" fill="#46883D"/>
<g opacity="0.3">
<path d="M184.207 72.9884C141.86 73.9603 107.332 108.094 106.324 149.977C105.892 167.913 111.532 184.519 121.326 197.967L121.305 197.974L122.082 199.02C122.119 199.069 122.155 199.119 122.192 199.168L178.698 275.184C183.672 281.875 193.851 281.665 198.538 274.773L249.613 199.674C259.278 185.096 265.907 169.858 265.907 151.896C265.907 107.681 229.148 71.9574 184.207 72.9884ZM186.103 209.293C152.968 209.293 126.106 182.725 126.106 149.953C126.106 117.181 152.968 90.6132 186.103 90.6132C219.239 90.6132 246.1 117.181 246.1 149.953C246.1 182.725 219.239 209.293 186.103 209.293Z" fill="black"/>
</g>
<path d="M179.477 72.9884C137.131 73.9603 102.602 108.094 101.593 149.977C101.162 167.913 106.801 184.519 116.596 197.967L116.574 197.974L117.352 199.02C117.389 199.069 117.425 199.119 117.461 199.168L173.968 275.184C178.942 281.875 189.12 281.665 193.807 274.773L244.881 199.674C254.547 185.096 261.176 169.858 261.176 151.896C261.177 107.681 224.418 71.9574 179.477 72.9884ZM181.374 209.293C148.238 209.293 121.376 182.725 121.376 149.953C121.376 117.181 148.238 90.6132 181.374 90.6132C214.509 90.6132 241.371 117.181 241.371 149.953C241.371 182.725 214.509 209.293 181.374 209.293Z" fill="#46883D"/>
<g opacity="0.3">
<path d="M215.889 194.709C214.93 195.784 151.483 212.352 150.523 213.428C162.691 217.097 177.555 220.292 190.255 219.565C197.416 219.154 204.883 217.892 210.544 213.535C216.205 209.177 219.336 200.93 215.889 194.709Z" fill="black"/>
</g>
<path d="M155.302 74.958C151.616 78.7608 150.008 84.4249 151.152 89.5692C151.709 92.068 152.821 94.8542 151.433 97.013C150.059 99.1501 146.821 99.5429 145.523 101.726C143.994 104.297 146.036 107.523 145.78 110.494C145.539 113.283 142.939 115.675 140.11 115.709C143.742 117.89 147.992 119.054 152.241 119.032C153.116 117.53 153.991 116.028 154.865 114.525C153.854 116.116 154.497 118.338 155.878 119.628C157.26 120.918 159.185 121.459 161.057 121.773C170.005 123.274 179.6 120.334 186.124 114.093" fill="#263238"/>
<path d="M206.491 90.624C205.578 88.7757 204.249 87.1295 203.536 85.1967C202.003 81.0423 203.43 75.9291 200.783 72.3646C198.899 69.8282 195.523 68.9257 192.381 68.4261C189.239 67.9265 185.895 67.5965 183.339 65.7215C181.464 64.3461 180.214 62.2675 178.344 60.8855C175.68 58.9167 172.115 58.6185 168.799 58.8748C165.393 59.1376 161.948 59.9426 159.12 61.8379C156.292 63.7324 154.162 66.8493 154.089 70.2275C154.053 71.8744 154.492 73.5343 154.199 75.1559C153.876 76.9385 152.71 78.4525 152.101 80.1615C150.814 83.7715 152.412 88.1706 155.728 90.1453L183.105 116.545C188.233 117.69 199.719 113.854 202.979 109.775C206.238 105.695 208.801 95.2939 206.491 90.624Z" fill="#263238"/>
<path d="M155.807 86.2963C155.81 79.4402 159.854 70.7784 166.779 71.0723L188.601 75.1118C190.705 75.2006 192.39 76.8677 192.481 78.9485L193.426 130.326C193.478 130.334 193.524 130.341 193.576 130.348C193.576 130.348 189.631 145.11 175.146 141.607C172.273 140.913 170.789 137.95 170.026 134.854L169.882 134.881C169.852 134.509 169.825 134.163 169.797 133.809C169.091 130.224 169.251 126.78 169.251 126.78C168.94 122.647 168.834 120.951 168.833 120.989C168.833 120.989 159.92 120.087 157.372 108.817C156.105 103.213 155.804 93.9134 155.807 86.2963Z" fill="#FFBE9D"/>
<path d="M175.799 93.3214C175.82 94.094 176.499 94.7134 177.315 94.7062C178.13 94.699 178.775 94.0687 178.754 93.2962C178.732 92.5236 178.053 91.9034 177.239 91.9106C176.423 91.9171 175.778 92.5489 175.799 93.3214Z" fill="#263238"/>
<path d="M160.725 94.46C160.746 95.2326 161.425 95.852 162.241 95.8448C163.056 95.8376 163.7 95.2073 163.679 94.434C163.658 93.6615 162.979 93.0413 162.164 93.0485C161.348 93.055 160.703 93.6868 160.725 94.46Z" fill="#263238"/>
<path d="M157.559 91.2305C157.754 91.4731 158.993 90.4349 160.729 90.4443C162.463 90.4248 163.72 91.4558 163.912 91.2117C164.006 91.1034 163.81 90.6659 163.263 90.2002C162.725 89.7367 161.801 89.284 160.72 89.2862C159.639 89.2905 158.722 89.7468 158.192 90.2147C157.65 90.684 157.462 91.1215 157.559 91.2305Z" fill="#263238"/>
<path d="M173.599 90.8435C173.834 91.0587 175.036 89.9143 176.875 89.7381C178.712 89.5338 180.158 90.4045 180.335 90.1461C180.422 90.0305 180.168 89.6248 179.535 89.2291C178.913 88.8335 177.884 88.492 176.737 88.6096C175.591 88.7295 174.669 89.2724 174.158 89.7858C173.638 90.3006 173.485 90.7475 173.599 90.8435Z" fill="#263238"/>
<path d="M168.753 102.332C168.755 102.242 167.757 102.135 166.144 102.032C165.736 102.015 165.347 101.959 165.262 101.69C165.148 101.406 165.29 100.964 165.457 100.484C165.778 99.4902 166.112 98.4476 166.463 97.356C167.853 92.9041 168.833 89.253 168.651 89.1995C168.469 89.1454 167.195 92.7106 165.805 97.1625C165.472 98.2599 165.153 99.3061 164.851 100.307C164.726 100.772 164.495 101.305 164.74 101.894C164.868 102.188 165.179 102.387 165.444 102.44C165.709 102.502 165.938 102.492 166.139 102.492C167.753 102.476 168.753 102.422 168.753 102.332Z" fill="#263238"/>
<path d="M168.833 120.989C168.833 120.989 176.607 121.004 183.989 115.968C183.989 115.968 180.745 124.019 169.158 123.667L168.833 120.989Z" fill="#EB996E"/>
<path d="M169.664 106.076C170.189 105.294 171.163 104.821 172.164 104.866C172.857 104.897 173.575 105.182 174.029 105.712C174.483 106.241 174.621 107.024 174.274 107.576C173.883 108.199 172.996 108.392 172.224 108.226C171.453 108.06 170.77 107.606 170.118 107.153C169.938 107.027 169.754 106.896 169.636 106.716C169.517 106.536 169.479 106.294 169.601 106.131" fill="#46883D"/>
<path d="M173.496 103.129C173.237 103.131 173.341 104.835 171.943 106.137C170.547 107.442 168.696 107.365 168.698 107.604C168.681 107.712 169.129 107.91 169.906 107.883C170.669 107.862 171.765 107.551 172.62 106.754C173.473 105.956 173.798 104.942 173.812 104.239C173.833 103.523 173.614 103.112 173.496 103.129Z" fill="#263238"/>
<path d="M172.999 85.5267C173.182 85.944 174.755 85.6437 176.633 85.7505C178.513 85.8198 180.049 86.266 180.273 85.8675C180.371 85.6776 180.084 85.2921 179.45 84.9159C178.821 84.5405 177.836 84.2076 176.71 84.1535C175.583 84.1015 174.57 84.3405 173.909 84.656C173.242 84.9708 172.919 85.3282 172.999 85.5267Z" fill="#263238"/>
<path d="M158.451 86.4155C158.792 86.7527 160.02 86.305 161.523 86.1938C163.021 86.0379 164.315 86.2617 164.584 85.8704C164.701 85.6812 164.478 85.3361 163.9 85.0329C163.331 84.7303 162.396 84.5123 161.364 84.6033C160.333 84.6957 159.458 85.074 158.958 85.4726C158.45 85.8718 158.299 86.2501 158.451 86.4155Z" fill="#263238"/>
<path d="M193.441 76.0923C192.162 74.6375 190.156 74.0758 188.258 73.6382C180.074 71.7495 171.662 70.8296 163.259 70.904C162.468 72.722 163.742 74.8707 165.465 75.875C167.189 76.88 169.25 77.0851 171.203 77.5146C173.157 77.9442 175.209 78.7377 176.229 80.4395C177.315 82.2495 176.951 84.622 177.943 86.4833C179.651 89.6868 184.564 90.115 186.253 93.3272C187.53 95.7574 186.419 98.6866 186.425 101.424C186.432 104.528 188.028 107.588 190.58 109.392C192.593 110.815 195.158 111.415 197.61 111.122C196.804 101.364 195.996 91.6052 195.19 81.8466C195.022 79.8149 194.793 77.6316 193.441 76.0923Z" fill="#263238"/>
<path d="M216.624 97.8137C214.884 96.6578 212.778 95.7416 211.884 93.8665C210.582 91.1352 212.425 87.458 210.563 85.0646C208.865 82.8813 204.87 83.5578 203.26 81.3102C202.003 79.555 202.902 77.7233 202.29 76.1133C201.679 74.5032 199.088 73.3762 197.406 73.8122L186.754 94.8253C186.424 101.424 185.66 105.019 187.588 108.586C188.646 110.543 189.928 112.415 190.537 114.55C191.145 116.685 190.932 119.229 189.315 120.766C197.395 120.278 204.299 115.103 210.652 110.143C212.894 108.394 215.136 106.644 217.378 104.894C218.077 104.348 218.805 103.767 219.156 102.956C219.98 101.051 218.363 98.9696 216.624 97.8137Z" fill="#263238"/>
<path d="M210.579 108.179C210.579 108.179 210.309 108.323 209.748 108.46C209.19 108.595 208.334 108.739 207.234 108.63C206.145 108.522 204.792 108.167 203.499 107.262C202.209 106.374 201.058 104.869 200.559 102.959C200.313 102.006 200.231 100.959 200.391 99.8909C200.553 98.8172 200.996 97.7805 201.459 96.7473C201.914 95.7134 202.419 94.647 202.558 93.4867C202.696 92.3474 202.513 91.0406 201.655 90.1944C200.792 89.3316 199.408 89.2832 198.084 88.9576C197.418 88.7959 196.712 88.4991 196.203 87.9461C195.695 87.3938 195.446 86.6624 195.36 85.9498C195.172 84.5 195.608 83.0906 195.685 81.7066C195.726 81.0134 195.676 80.3081 195.411 79.6857C195.151 79.0633 194.658 78.5536 194.031 78.2424C192.762 77.5876 191.271 77.6612 189.836 77.7341C188.396 77.8302 186.862 77.719 185.548 77.1067C184.225 76.532 183.098 75.6013 182.301 74.475C181.507 73.3343 181.095 72.0469 180.723 70.8311C180.353 69.6109 180.008 68.4218 179.436 67.3864C178.865 66.3561 178.056 65.5042 177.159 64.845C175.333 63.5519 173.182 63.0263 171.279 63.1353C169.362 63.24 167.714 63.9742 166.474 64.8414C165.222 65.7107 164.335 66.7106 163.724 67.5871C162.507 69.3654 162.268 70.5769 162.203 70.5473C162.195 70.5452 162.211 70.4723 162.251 70.3315C162.294 70.1928 162.341 69.9784 162.445 69.7134C162.634 69.1755 162.976 68.3987 163.573 67.4861C164.17 66.5792 165.052 65.5417 166.322 64.6298C167.579 63.7215 169.267 62.9382 171.259 62.8075C173.234 62.6739 175.468 63.1952 177.389 64.5331C178.332 65.2154 179.189 66.1049 179.799 67.19C180.407 68.2759 180.763 69.4939 181.139 70.7069C181.514 71.9177 181.923 73.1574 182.669 74.2216C183.422 75.2764 184.488 76.1522 185.735 76.6901C186.982 77.2627 188.379 77.3659 189.817 77.272C191.237 77.2027 192.829 77.1017 194.249 77.8301C194.952 78.1753 195.547 78.7825 195.845 79.5052C196.151 80.2279 196.196 81.0033 196.153 81.7318C196.062 83.1989 195.641 84.5628 195.818 85.8949C195.896 86.5505 196.117 87.1801 196.542 87.6436C196.966 88.1064 197.566 88.3721 198.199 88.528C198.831 88.6948 199.497 88.7764 200.153 88.9504C200.803 89.115 201.472 89.3966 201.962 89.8904C202.957 90.8933 203.12 92.3272 202.97 93.5358C202.81 94.7856 202.276 95.8737 201.817 96.9039C201.346 97.9328 200.913 98.932 200.751 99.9465C200.59 100.96 200.657 101.963 200.883 102.878C201.342 104.716 202.427 106.177 203.655 107.052C204.886 107.944 206.194 108.318 207.255 108.449C209.417 108.686 210.573 108.096 210.579 108.179Z" fill="#455A64"/>
<path d="M219.309 93.0795C219.309 93.0795 219.497 93.2506 219.664 93.6889C219.832 94.1185 219.923 94.8542 219.599 95.6968C219.429 96.1083 219.159 96.5494 218.727 96.9018C218.298 97.252 217.727 97.5097 217.084 97.5884C215.813 97.7783 214.207 97.2281 213.272 95.8751C212.802 95.2166 212.484 94.4123 212.361 93.5445C212.239 92.6716 212.34 91.7554 212.553 90.8543C212.945 89.0558 213.859 87.2299 213.601 85.227C213.486 84.2552 213.107 83.2343 212.288 82.638C211.475 82.0228 210.35 82.0012 209.256 82.1434C208.156 82.2589 206.981 82.5629 205.745 82.2683C205.138 82.1174 204.56 81.7687 204.155 81.2806C203.744 80.7961 203.483 80.2142 203.323 79.6178C203.001 78.4056 203.128 77.1991 203.114 76.0627C203.132 74.9227 202.906 73.8332 202.468 72.8317C201.586 70.834 199.93 69.2831 198.064 68.52C196.185 67.7272 194.165 67.8933 192.345 68.0369C190.514 68.1936 188.741 68.3243 187.174 67.9496C185.611 67.6066 184.301 66.9446 183.277 66.2175C182.243 65.4955 181.499 64.6941 180.963 63.9981C179.898 62.5844 179.656 61.6213 179.656 61.6213C179.709 61.5924 180.017 62.5324 181.106 63.8862C181.655 64.5526 182.404 65.3193 183.428 66.0038C184.442 66.694 185.727 67.3164 187.243 67.6268C188.758 67.9691 190.474 67.8261 192.311 67.6521C194.13 67.4947 196.221 67.294 198.229 68.1236C200.206 68.9207 201.952 70.5401 202.89 72.6498C203.358 73.6989 203.601 74.8866 203.582 76.0598C203.593 77.2237 203.482 78.3984 203.778 79.4987C204.05 80.5969 204.783 81.5773 205.863 81.8206C206.929 82.0849 208.075 81.8141 209.203 81.6907C210.313 81.5492 211.598 81.5535 212.558 82.2827C213.517 82.9946 213.913 84.139 214.032 85.1772C214.16 86.235 213.986 87.2819 213.717 88.2233C213.456 89.1728 213.142 90.0644 212.932 90.9417C212.717 91.8153 212.615 92.6831 212.72 93.4976C212.826 94.3112 213.115 95.0686 213.544 95.6867C214.394 96.9523 215.861 97.4794 217.052 97.3299C217.65 97.2693 218.184 97.0411 218.586 96.7292C218.99 96.4159 219.257 96.0108 219.43 95.6275C219.761 94.8426 219.708 94.1401 219.574 93.7178C219.442 93.2867 219.286 93.0932 219.309 93.0795Z" fill="#263238"/>
<path d="M135.748 109.478C135.822 109.462 135.423 110.296 136.067 111.541C136.384 112.124 137.012 112.803 137.964 112.977C138.892 113.154 140.092 112.751 140.785 111.778C141.133 111.299 141.287 110.677 141.237 110.027C141.189 109.378 140.964 108.715 140.648 108.069C140.034 106.79 138.962 105.453 138.847 103.691C138.704 101.985 139.326 100.133 140.631 98.7855C141.275 98.109 142.062 97.5502 142.938 97.1429C143.814 96.7235 144.783 96.5235 145.727 96.3437C146.674 96.1625 147.609 96.0072 148.45 95.6751C149.286 95.3495 150.011 94.8015 150.413 94.055C150.817 93.3099 150.917 92.4391 150.859 91.6081C150.801 90.7699 150.584 89.9684 150.306 89.1988C149.755 87.6645 149.059 86.1953 148.935 84.6733C148.802 83.1614 149.189 81.7477 149.818 80.6351C150.446 79.5023 151.357 78.7363 152.114 78.098C152.883 77.4591 153.537 76.9089 153.995 76.3862C154.937 75.3465 155.006 74.5119 155.069 74.5407C155.077 74.5422 155.072 74.5906 155.054 74.6844C155.032 74.7761 155.019 74.9205 154.949 75.0938C154.84 75.449 154.591 75.9566 154.134 76.5031C153.687 77.0576 153.036 77.6388 152.286 78.2944C151.543 78.9529 150.686 79.7081 150.109 80.794C149.528 81.864 149.18 83.2148 149.322 84.6386C149.454 86.0711 150.138 87.4949 150.714 89.0565C151.003 89.8385 151.241 90.6868 151.306 91.577C151.373 92.4615 151.276 93.4189 150.818 94.2716C150.363 95.1286 149.527 95.7553 148.624 96.1054C147.716 96.4643 146.757 96.6202 145.815 96.8014C144.871 96.9812 143.956 97.1711 143.135 97.5632C142.311 97.9444 141.569 98.4685 140.964 99.0996C139.742 100.354 139.157 102.073 139.277 103.66C139.362 105.275 140.361 106.56 140.998 107.906C141.319 108.583 141.554 109.291 141.597 110.007C141.645 110.718 141.457 111.436 141.054 111.97C140.256 113.046 138.939 113.452 137.912 113.234C136.857 113.011 136.214 112.254 135.902 111.626C135.579 110.977 135.56 110.395 135.597 110.028C135.649 109.652 135.748 109.478 135.748 109.478Z" fill="#263238"/>
<path d="M138.446 153.502C138.446 153.502 139.672 143.795 144.404 138.942C149.136 134.088 168.932 128.011 168.932 128.011C168.932 128.011 169.75 134.935 174.49 136.605C179.519 138.376 185.2 137.711 188.882 133.486C192.443 129.4 193.483 124.147 193.483 124.147C193.483 124.147 217.125 126.299 220.981 132.712C224.836 139.126 229.822 163.965 229.822 163.965L207.718 168.606L210.723 211.397H151.984L153.134 171.24L137.143 173.499L138.446 153.502Z" fill="#455A64"/>
<path d="M203.328 170.019C203.293 170.019 203.267 169.675 203.25 169.054C203.232 168.433 203.223 167.535 203.224 166.426C203.224 164.207 203.26 161.143 203.331 157.76C203.402 154.375 203.495 151.312 203.588 149.094C203.634 147.985 203.68 147.087 203.723 146.467C203.767 145.847 203.807 145.504 203.842 145.504C203.877 145.504 203.904 145.847 203.921 146.467C203.939 147.087 203.947 147.985 203.947 149.094C203.946 151.313 203.91 154.379 203.839 157.765C203.769 161.15 203.676 164.215 203.583 166.433C203.537 167.542 203.49 168.438 203.447 169.058C203.404 169.678 203.363 170.02 203.328 170.019Z" fill="#263238"/>
<path d="M147.687 152.402C147.822 152.364 149.202 156.703 150.768 162.093C152.334 167.485 153.494 171.886 153.359 171.925C153.224 171.963 151.845 167.625 150.279 162.233C148.712 156.842 147.552 152.44 147.687 152.402Z" fill="#263238"/>
<path d="M218.51 131.172C218.528 131.262 217.462 131.455 215.849 132.062C214.236 132.662 212.101 133.766 210.112 135.47C208.13 137.182 206.728 139.121 205.904 140.617C205.072 142.114 204.731 143.131 204.644 143.101C204.61 143.09 204.671 142.83 204.81 142.363C204.94 141.895 205.202 141.237 205.584 140.453C206.343 138.883 207.739 136.85 209.777 135.09C211.822 133.338 214.051 132.252 215.727 131.727C216.565 131.46 217.26 131.296 217.748 131.234C218.235 131.161 218.504 131.138 218.51 131.172Z" fill="#263238"/>
<path d="M144.047 140.902C144.184 140.868 144.648 142.217 145.085 143.916C145.521 145.615 145.765 147.019 145.628 147.053C145.492 147.087 145.028 145.739 144.591 144.039C144.155 142.341 143.912 140.936 144.047 140.902Z" fill="#263238"/>
<path d="M225.889 164.792C225.889 164.792 219.268 198.047 218.51 200.892C217.752 203.738 216.529 211.397 208.511 212.981C197.687 215.12 155.177 213.627 155.177 213.627L163.196 203.587L200.389 193.271L205.472 169.077L225.889 164.792Z" fill="#FFBE9D"/>
<path d="M162.494 197.974C162.524 197.964 162.65 198.232 162.812 198.74C162.974 199.247 163.148 200.005 163.238 200.958C163.431 202.846 163.164 205.606 161.719 208.201C161.005 209.472 160.202 210.633 159.285 211.536C158.377 212.447 157.358 213.062 156.446 213.406C155.534 213.756 154.746 213.859 154.211 213.904C153.671 213.927 153.375 213.909 153.373 213.877C153.356 213.769 154.583 213.807 156.308 213.077C157.162 212.707 158.101 212.098 158.95 211.211C159.807 210.333 160.575 209.202 161.273 207.957C162.656 205.472 162.976 202.826 162.878 200.981C162.794 199.116 162.403 197.998 162.494 197.974Z" fill="#EB996E"/>
<path d="M126.9 158.616C126.9 158.616 132.894 178.564 135.381 187.183C138.024 196.341 143.798 217.137 156.107 213.443C165.47 210.633 162.714 198.632 162.714 198.632L153.133 171.24L145.682 172.47L138.446 153.999L126.9 158.616Z" fill="#FFBE9D"/>
<path d="M159.44 199.493C159.323 199.487 160.09 197.751 159.444 194.98C159.13 193.616 158.477 192.049 157.448 190.496C156.421 188.937 155.037 187.395 153.565 185.785C152.087 184.181 150.714 182.582 149.667 180.992C148.602 179.413 147.81 177.891 147.218 176.585C146.631 175.276 146.253 174.179 146.018 173.414C145.784 172.65 145.698 172.215 145.728 172.206C145.766 172.195 145.915 172.61 146.206 173.351C146.496 174.091 146.922 175.159 147.545 176.434C148.17 177.707 148.986 179.191 150.055 180.732C151.109 182.285 152.464 183.841 153.943 185.448C155.414 187.057 156.811 188.63 157.842 190.244C158.879 191.856 159.517 193.486 159.796 194.906C160.088 196.328 159.993 197.522 159.836 198.309C159.745 198.702 159.663 199.003 159.579 199.2C159.504 199.398 159.457 199.499 159.44 199.493Z" fill="#EB996E"/>
<path d="M138.446 153.998C138.446 153.998 138.488 146.032 137.78 143.786L132.089 131.207C132.089 131.207 130.623 130.318 129.923 132.826C129.234 135.295 131.444 137.912 131.444 137.912L131.617 141.205L129.313 139.353L124.88 131.135C124.88 131.135 121.826 125.153 121.033 126.102C120.239 127.052 120.501 128.975 121.819 131.557C123.136 134.139 124.808 137.413 124.808 137.413C124.808 137.413 125.259 138.452 123.69 136.944C122.121 135.436 118.712 128.13 118.007 127.217C117.302 126.305 116.334 123.627 114.806 124.232C113.277 124.837 115.235 128.048 115.235 128.048L120.125 138.882C120.125 138.882 117.291 134.779 116.778 134.087C116.265 133.395 115.087 131.046 114.158 129.85C113.229 128.655 112.216 128.188 111.542 128.476C110.328 128.995 110.696 130.128 110.696 130.128L115.916 139.087C115.916 139.087 118.526 143.105 118.522 143.409C118.518 143.714 116.247 142.082 116.247 142.082L114.058 139.324C114.058 139.324 111.691 135.191 110.448 135.416C109.204 135.642 109.431 136.555 109.431 136.555L113.83 144.079L120.209 152.194L127.031 158.897L130.972 157.641L138.446 153.998Z" fill="#FFBE9D"/>
<path d="M125.897 152.652C126 152.658 126.064 151.677 126.305 150.141C126.56 148.649 127.081 146.423 128.927 144.983C129.735 144.342 130.693 143.981 131.579 143.983L131.905 143.983L131.883 143.633C131.782 142.089 131.838 140.619 131.781 139.641C131.75 138.646 131.642 138.051 131.562 138.064C131.504 138.075 131.481 138.643 131.407 139.636C131.361 140.645 131.211 141.989 131.28 143.729L131.583 143.38C130.544 143.347 129.424 143.759 128.522 144.477C127.513 145.264 126.84 146.318 126.46 147.326C126.072 148.335 125.924 149.291 125.848 150.083C125.719 151.675 125.821 152.649 125.897 152.652Z" fill="#EB996E"/>
</svg>
